                                                                        S0000001
,,31HOpen CASCADE IGES processor 7.7,13HFilename.iges,                  G0000001
16HOpen CASCADE 7.7,31HOpen CASCADE IGES processor 7.7,32,308,15,308,15,G0000002
,1.,2,2HMM,1,0.01,15H20260803.120825,8.66991E-05,2.502522,6HSYSTEM,,11, G0000003
0,15H20260803.120825,;                                                  G0000004
     402       1       0       0       0       0       0       000000000D0000001
     402       0       0       1       1                    part        D0000002
     402       2       0       0       0       0       0       000020000D0000003
     402       0       0       1       1                               0D0000004
     144       3       0       0       0       0       0       000020000D0000005
     144       0    -539       1       0                               0D0000006
     108       4       0       0       0       0       0       000010000D0000007
     108       0       0       1       0                               0D0000008
     142       5       0       0       0       0       0       000010500D0000009
     142       0       0       1       0                               0D0000010
     102       6       0       0       0       0       0       000010000D0000011
     102       0       0       1       0                               0D0000012
     110       7       0       0       0       0       0       000010000D0000013
     110       0       0       1       0                               0D0000014
     110       8       0       0       0       0       0       000010000D0000015
     110       0       0       1       0                               0D0000016
     110       9       0       0       0       0       0       000010000D0000017
     110       0       0       1       0                               0D0000018
     110      10       0       0       0       0       0       000010000D0000019
     110       0       0       1       0                               0D0000020
     144      11       0       0       0       0       0       000020000D0000021
     144       0    -539       1       0                               0D0000022
     108      12       0       0       0       0       0       000010000D0000023
     108       0       0       1       0                               0D0000024
     142      13       0       0       0       0       0       000010500D0000025
     142       0       0       1       0                               0D0000026
     102      14       0       0       0       0       0       000010000D0000027
     102       0       0       1       0                               0D0000028
     110      15       0       0       0       0       0       000010000D0000029
     110       0       0       1       0                               0D0000030
     110      16       0       0       0       0       0       000010000D0000031
     110       0       0       1       0                               0D0000032
     110      17       0       0       0       0       0       000010000D0000033
     110       0       0       1       0                               0D0000034
     110      18       0       0       0       0       0       000010000D0000035
     110       0    -539       1       0                               0D0000036
     144      19       0       0       0       0       0       000020000D0000037
     144       0    -539       1       0                               0D0000038
     108      20       0       0       0       0       0       000010000D0000039
     108       0       0       1       0                               0D0000040
     142      21       0       0       0       0       0       000010500D0000041
     142       0       0       1       0                               0D0000042
     102      22       0       0       0       0       0       000010000D0000043
     102       0       0       1       0                               0D0000044
     110      23       0       0       0       0       0       000010000D0000045
     110       0       0       1       0                               0D0000046
     110      24       0       0       0       0       0       000010000D0000047
     110       0       0       1       0                               0D0000048
     110      25       0       0       0       0       0       000010000D0000049
     110       0       0       1       0                               0D0000050
     110      26       0       0       0       0       0       000010000D0000051
     110       0    -539       1       0                               0D0000052
     144      27       0       0       0       0       0       000020000D0000053
     144       0    -539       1       0                               0D0000054
     108      28       0       0       0       0       0       000010000D0000055
     108       0       0       1       0                               0D0000056
     142      29       0       0       0       0       0       000010500D0000057
     142       0       0       1       0                               0D0000058
     102      30       0       0       0       0       0       000010000D0000059
     102       0       0       1       0                               0D0000060
     110      31       0       0       0       0       0       000010000D0000061
     110       0       0       1       0                               0D0000062
     110      32       0       0       0       0       0       000010000D0000063
     110       0    -539       1       0                               0D0000064
     110      33       0       0       0       0       0       000010000D0000065
     110       0       0       1       0                               0D0000066
     110      34       0       0       0       0       0       000010000D0000067
     110       0    -539       1       0                               0D0000068
     144      35       0       0       0       0       0       000020000D0000069
     144       0    -539       1       0                               0D0000070
     108      36       0       0       0       0       0       000010000D0000071
     108       0       0       1       0                               0D0000072
     142      37       0       0       0       0       0       000010500D0000073
     142       0       0       1       0                               0D0000074
     102      38       0       0       0       0       0       000010000D0000075
     102       0       0       1       0                               0D0000076
     110      39       0       0       0       0       0       000010000D0000077
     110       0    -539       1       0                               0D0000078
     110      40       0       0       0       0       0       000010000D0000079
     110       0    -539       1       0                               0D0000080
     110      41       0       0       0       0       0       000010000D0000081
     110       0    -539       1       0                               0D0000082
     110      42       0       0       0       0       0       000010000D0000083
     110       0    -539       1       0                               0D0000084
     144      43       0       0       0       0       0       000020000D0000085
     144       0    -539       1       0                               0D0000086
     108      44       0       0       0       0       0       000010000D0000087
     108       0       0       1       0                               0D0000088
     142      45       0       0       0       0       0       000010500D0000089
     142       0       0       1       0                               0D0000090
     102      46       0       0       0       0       0       000010000D0000091
     102       0       0       1       0                               0D0000092
     110      47       0       0       0       0       0       000010000D0000093
     110       0    -539       1       0                               0D0000094
     110      48       0       0       0       0       0       000010000D0000095
     110       0    -539       1       0                               0D0000096
     110      49       0       0       0       0       0       000010000D0000097
     110       0    -539       1       0                               0D0000098
     110      50       0       0       0       0       0       000010000D0000099
     110       0    -539       1       0                               0D0000100
     402      51       0       0       0       0       0       000020000D0000101
     402       0       0       1       1                               0D0000102
     144      52       0       0       0       0       0       000020000D0000103
     144       0    -541       1       0                               0D0000104
     108      53       0       0       0       0       0       000010000D0000105
     108       0       0       1       0                               0D0000106
     142      54       0       0       0       0       0       000010500D0000107
     142       0       0       1       0                               0D0000108
     102      55       0       0       0       0       0       000010000D0000109
     102       0       0       1       0                               0D0000110
     110      56       0       0       0       0       0       000010000D0000111
     110       0       0       1       0                               0D0000112
     110      57       0       0       0       0       0       000010000D0000113
     110       0       0       1       0                               0D0000114
     110      58       0       0       0       0       0       000010000D0000115
     110       0       0       1       0                               0D0000116
     110      59       0       0       0       0       0       000010000D0000117
     110       0       0       1       0                               0D0000118
     144      60       0       0       0       0       0       000020000D0000119
     144       0    -541       1       0                               0D0000120
     108      61       0       0       0       0       0       000010000D0000121
     108       0       0       1       0                               0D0000122
     142      62       0       0       0       0       0       000010500D0000123
     142       0       0       1       0                               0D0000124
     102      63       0       0       0       0       0       000010000D0000125
     102       0       0       1       0                               0D0000126
     110      64       0       0       0       0       0       000010000D0000127
     110       0       0       1       0                               0D0000128
     110      65       0       0       0       0       0       000010000D0000129
     110       0       0       1       0                               0D0000130
     110      66       0       0       0       0       0       000010000D0000131
     110       0       0       1       0                               0D0000132
     110      67       0       0       0       0       0       000010000D0000133
     110       0       0       1       0                               0D0000134
     144      68       0       0       0       0       0       000020000D0000135
     144       0    -541       1       0                               0D0000136
     108      69       0       0       0       0       0       000010000D0000137
     108       0       0       2       0                               0D0000138
     142      71       0       0       0       0       0       000010500D0000139
     142       0       0       1       0                               0D0000140
     102      72       0       0       0       0       0       000010000D0000141
     102       0       0       1       0                               0D0000142
     110      73       0       0       0       0       0       000010000D0000143
     110       0       0       1       0                               0D0000144
     110      74       0       0       0       0       0       000010000D0000145
     110       0       0       1       0                               0D0000146
     110      75       0       0       0       0       0       000010000D0000147
     110       0    -541       1       0                               0D0000148
     110      76       0       0       0       0       0       000010000D0000149
     110       0       0       1       0                               0D0000150
     144      77       0       0       0       0       0       000020000D0000151
     144       0    -541       1       0                               0D0000152
     108      78       0       0       0       0       0       000010000D0000153
     108       0       0       1       0                               0D0000154
     142      79       0       0       0       0       0       000010500D0000155
     142       0       0       1       0                               0D0000156
     102      80       0       0       0       0       0       000010000D0000157
     102       0       0       1       0                               0D0000158
     110      81       0       0       0       0       0       000010000D0000159
     110       0       0       1       0                               0D0000160
     110      82       0       0       0       0       0       000010000D0000161
     110       0       0       1       0                               0D0000162
     110      83       0       0       0       0       0       000010000D0000163
     110       0    -541       1       0                               0D0000164
     110      84       0       0       0       0       0       000010000D0000165
     110       0    -541       1       0                               0D0000166
     144      85       0       0       0       0       0       000020000D0000167
     144       0    -541       1       0                               0D0000168
     108      86       0       0       0       0       0       000010000D0000169
     108       0       0       2       0                               0D0000170
     142      88       0       0       0       0       0       000010500D0000171
     142       0       0       1       0                               0D0000172
     102      89       0       0       0       0       0       000010000D0000173
     102       0       0       1       0                               0D0000174
     110      90       0       0       0       0       0       000010000D0000175
     110       0       0       1       0                               0D0000176
     110      91       0       0       0       0       0       000010000D0000177
     110       0       0       1       0                               0D0000178
     110      92       0       0       0       0       0       000010000D0000179
     110       0    -541       1       0                               0D0000180
     110      93       0       0       0       0       0       000010000D0000181
     110       0    -541       1       0                               0D0000182
     144      94       0       0       0       0       0       000020000D0000183
     144       0    -541       1       0                               0D0000184
     108      95       0       0       0       0       0       000010000D0000185
     108       0       0       2       0                               0D0000186
     142      97       0       0       0       0       0       000010500D0000187
     142       0       0       1       0                               0D0000188
     102      98       0       0       0       0       0       000010000D0000189
     102       0       0       1       0                               0D0000190
     110      99       0       0       0       0       0       000010000D0000191
     110       0       0       1       0                               0D0000192
     110     100       0       0       0       0       0       000010000D0000193
     110       0    -541       1       0                               0D0000194
     110     101       0       0       0       0       0       000010000D0000195
     110       0    -541       1       0                               0D0000196
     110     102       0       0       0       0       0       000010000D0000197
     110       0    -541       1       0                               0D0000198
     144     103       0       0       0       0       0       000020000D0000199
     144       0    -541       1       0                               0D0000200
     108     104       0       0       0       0       0       000010000D0000201
     108       0       0       1       0                               0D0000202
     142     105       0       0       0       0       0       000010500D0000203
     142       0       0       1       0                               0D0000204
     102     106       0       0       0       0       0       000010000D0000205
     102       0       0       1       0                               0D0000206
     110     107       0       0       0       0       0       000010000D0000207
     110       0    -541       1       0                               0D0000208
     110     108       0       0       0       0       0       000010000D0000209
     110       0       0       1       0                               0D0000210
     110     109       0       0       0       0       0       000010000D0000211
     110       0    -541       1       0                               0D0000212
     110     110       0       0       0       0       0       000010000D0000213
     110       0       0       1       0                               0D0000214
     144     111       0       0       0       0       0       000020000D0000215
     144       0    -541       1       0                               0D0000216
     108     112       0       0       0       0       0       000010000D0000217
     108       0       0       1       0                               0D0000218
     142     113       0       0       0       0       0       000010500D0000219
     142       0       0       1       0                               0D0000220
     102     114       0       0       0       0       0       000010000D0000221
     102       0       0       1       0                               0D0000222
     110     115       0       0       0       0       0       000010000D0000223
     110       0    -541       1       0                               0D0000224
     110     116       0       0       0       0       0       000010000D0000225
     110       0       0       1       0                               0D0000226
     110     117       0       0       0       0       0       000010000D0000227
     110       0    -541       1       0                               0D0000228
     110     118       0       0       0       0       0       000010000D0000229
     110       0    -541       1       0                               0D0000230
     144     119       0       0       0       0       0       000020000D0000231
     144       0    -541       1       0                               0D0000232
     108     120       0       0       0       0       0       000010000D0000233
     108       0       0       1       0                               0D0000234
     142     121       0       0       0       0       0       000010500D0000235
     142       0       0       1       0                               0D0000236
     102     122       0       0       0       0       0       000010000D0000237
     102       0       0       1       0                               0D0000238
     110     123       0       0       0       0       0       000010000D0000239
     110       0    -541       1       0                               0D0000240
     110     124       0       0       0       0       0       000010000D0000241
     110       0       0       1       0                               0D0000242
     110     125       0       0       0       0       0       000010000D0000243
     110       0    -541       1       0                               0D0000244
     110     126       0       0       0       0       0       000010000D0000245
     110       0    -541       1       0                               0D0000246
     144     127       0       0       0       0       0       000020000D0000247
     144       0    -541       1       0                               0D0000248
     108     128       0       0       0       0       0       000010000D0000249
     108       0       0       1       0                               0D0000250
     142     129       0       0       0       0       0       000010500D0000251
     142       0       0       1       0                               0D0000252
     102     130       0       0       0       0       0       000010000D0000253
     102       0       0       1       0                               0D0000254
     110     131       0       0       0       0       0       000010000D0000255
     110       0    -541       1       0                               0D0000256
     110     132       0       0       0       0       0       000010000D0000257
     110       0    -541       1       0                               0D0000258
     110     133       0       0       0       0       0       000010000D0000259
     110       0    -541       1       0                               0D0000260
     110     134       0       0       0       0       0       000010000D0000261
     110       0    -541       1       0                               0D0000262
     402     135       0       0       0       0       0       000020000D0000263
     402       0       0       1       1                               0D0000264
     144     136       0       0       0       0       0       000020000D0000265
     144       0    -543       1       0                               0D0000266
     108     137       0       0       0       0       0       000010000D0000267
     108       0       0       1       0                               0D0000268
     142     138       0       0       0       0       0       000010500D0000269
     142       0       0       1       0                               0D0000270
     102     139       0       0       0       0       0       000010000D0000271
     102       0       0       1       0                               0D0000272
     110     140       0       0       0       0       0       000010000D0000273
     110       0       0       1       0                               0D0000274
     110     141       0       0       0       0       0       000010000D0000275
     110       0       0       1       0                               0D0000276
     110     142       0       0       0       0       0       000010000D0000277
     110       0       0       1       0                               0D0000278
     110     143       0       0       0       0       0       000010000D0000279
     110       0       0       1       0                               0D0000280
     110     144       0       0       0       0       0       000010000D0000281
     110       0       0       1       0                               0D0000282
     110     145       0       0       0       0       0       000010000D0000283
     110       0       0       1       0                               0D0000284
     144     146       0       0       0       0       0       000020000D0000285
     144       0    -543       1       0                               0D0000286
     108     147       0       0       0       0       0       000010000D0000287
     108       0       0       1       0                               0D0000288
     142     148       0       0       0       0       0       000010500D0000289
     142       0       0       1       0                               0D0000290
     102     149       0       0       0       0       0       000010000D0000291
     102       0       0       1       0                               0D0000292
     110     150       0       0       0       0       0       000010000D0000293
     110       0       0       1       0                               0D0000294
     110     151       0       0       0       0       0       000010000D0000295
     110       0       0       1       0                               0D0000296
     110     152       0       0       0       0       0       000010000D0000297
     110       0       0       1       0                               0D0000298
     110     153       0       0       0       0       0       000010000D0000299
     110       0       0       1       0                               0D0000300
     110     154       0       0       0       0       0       000010000D0000301
     110       0       0       1       0                               0D0000302
     110     155       0       0       0       0       0       000010000D0000303
     110       0       0       1       0                               0D0000304
     144     156       0       0       0       0       0       000020000D0000305
     144       0    -543       1       0                               0D0000306
     108     157       0       0       0       0       0       000010000D0000307
     108       0       0       1       0                               0D0000308
     142     158       0       0       0       0       0       000010500D0000309
     142       0       0       1       0                               0D0000310
     102     159       0       0       0       0       0       000010000D0000311
     102       0       0       1       0                               0D0000312
     110     160       0       0       0       0       0       000010000D0000313
     110       0    -543       1       0                               0D0000314
     110     161       0       0       0       0       0       000010000D0000315
     110       0       0       1       0                               0D0000316
     110     162       0       0       0       0       0       000010000D0000317
     110       0    -543       1       0                               0D0000318
     110     163       0       0       0       0       0       000010000D0000319
     110       0       0       1       0                               0D0000320
     144     164       0       0       0       0       0       000020000D0000321
     144       0    -543       1       0                               0D0000322
     108     165       0       0       0       0       0       000010000D0000323
     108       0       0       1       0                               0D0000324
     142     166       0       0       0       0       0       000010500D0000325
     142       0       0       1       0                               0D0000326
     102     167       0       0       0       0       0       000010000D0000327
     102       0       0       1       0                               0D0000328
     110     168       0       0       0       0       0       000010000D0000329
     110       0    -543       1       0                               0D0000330
     110     169       0       0       0       0       0       000010000D0000331
     110       0       0       1       0                               0D0000332
     110     170       0       0       0       0       0       000010000D0000333
     110       0    -543       1       0                               0D0000334
     110     171       0       0       0       0       0       000010000D0000335
     110       0       0       1       0                               0D0000336
     144     172       0       0       0       0       0       000020000D0000337
     144       0    -543       1       0                               0D0000338
     108     173       0       0       0       0       0       000010000D0000339
     108       0       0       1       0                               0D0000340
     142     174       0       0       0       0       0       000010500D0000341
     142       0       0       1       0                               0D0000342
     102     175       0       0       0       0       0       000010000D0000343
     102       0       0       1       0                               0D0000344
     110     176       0       0       0       0       0       000010000D0000345
     110       0       0       1       0                               0D0000346
     110     177       0       0       0       0       0       000010000D0000347
     110       0    -543       1       0                               0D0000348
     110     178       0       0       0       0       0       000010000D0000349
     110       0    -543       1       0                               0D0000350
     110     179       0       0       0       0       0       000010000D0000351
     110       0    -543       1       0                               0D0000352
     144     180       0       0       0       0       0       000020000D0000353
     144       0    -543       1       0                               0D0000354
     108     181       0       0       0       0       0       000010000D0000355
     108       0       0       1       0                               0D0000356
     142     182       0       0       0       0       0       000010500D0000357
     142       0       0       1       0                               0D0000358
     102     183       0       0       0       0       0       000010000D0000359
     102       0       0       1       0                               0D0000360
     110     184       0       0       0       0       0       000010000D0000361
     110       0       0       1       0                               0D0000362
     110     185       0       0       0       0       0       000010000D0000363
     110       0    -543       1       0                               0D0000364
     110     186       0       0       0       0       0       000010000D0000365
     110       0    -543       1       0                               0D0000366
     110     187       0       0       0       0       0       000010000D0000367
     110       0    -543       1       0                               0D0000368
     144     188       0       0       0       0       0       000020000D0000369
     144       0    -543       1       0                               0D0000370
     108     189       0       0       0       0       0       000010000D0000371
     108       0       0       1       0                               0D0000372
     142     190       0       0       0       0       0       000010500D0000373
     142       0       0       1       0                               0D0000374
     102     191       0       0       0       0       0       000010000D0000375
     102       0       0       1       0                               0D0000376
     110     192       0       0       0       0       0       000010000D0000377
     110       0    -543       1       0                               0D0000378
     110     193       0       0       0       0       0       000010000D0000379
     110       0    -543       1       0                               0D0000380
     110     194       0       0       0       0       0       000010000D0000381
     110       0    -543       1       0                               0D0000382
     110     195       0       0       0       0       0       000010000D0000383
     110       0    -543       1       0                               0D0000384
     144     196       0       0       0       0       0       000020000D0000385
     144       0    -543       1       0                               0D0000386
     108     197       0       0       0       0       0       000010000D0000387
     108       0       0       1       0                               0D0000388
     142     198       0       0       0       0       0       000010500D0000389
     142       0       0       1       0                               0D0000390
     102     199       0       0       0       0       0       000010000D0000391
     102       0       0       1       0                               0D0000392
     110     200       0       0       0       0       0       000010000D0000393
     110       0    -543       1       0                               0D0000394
     110     201       0       0       0       0       0       000010000D0000395
     110       0    -543       1       0                               0D0000396
     110     202       0       0       0       0       0       000010000D0000397
     110       0    -543       1       0                               0D0000398
     110     203       0       0       0       0       0       000010000D0000399
     110       0    -543       1       0                               0D0000400
     402     204       0       0       0       0       0       000020000D0000401
     402       0       0       1       1                               0D0000402
     144     205       0       0       0       0       0       000020000D0000403
     144       0    -543       1       0                               0D0000404
     108     206       0       0       0       0       0       000010000D0000405
     108       0       0       1       0                               0D0000406
     142     207       0       0       0       0       0       000010500D0000407
     142       0       0       1       0                               0D0000408
     102     208       0       0       0       0       0       000010000D0000409
     102       0       0       1       0                               0D0000410
     110     209       0       0       0       0       0       000010000D0000411
     110       0       0       1       0                               0D0000412
     110     210       0       0       0       0       0       000010000D0000413
     110       0       0       1       0                               0D0000414
     110     211       0       0       0       0       0       000010000D0000415
     110       0       0       1       0                               0D0000416
     110     212       0       0       0       0       0       000010000D0000417
     110       0       0       1       0                               0D0000418
     110     213       0       0       0       0       0       000010000D0000419
     110       0       0       1       0                               0D0000420
     110     214       0       0       0       0       0       000010000D0000421
     110       0       0       1       0                               0D0000422
     144     215       0       0       0       0       0       000020000D0000423
     144       0    -543       1       0                               0D0000424
     108     216       0       0       0       0       0       000010000D0000425
     108       0       0       1       0                               0D0000426
     142     217       0       0       0       0       0       000010500D0000427
     142       0       0       1       0                               0D0000428
     102     218       0       0       0       0       0       000010000D0000429
     102       0       0       1       0                               0D0000430
     110     219       0       0       0       0       0       000010000D0000431
     110       0       0       1       0                               0D0000432
     110     220       0       0       0       0       0       000010000D0000433
     110       0       0       1       0                               0D0000434
     110     221       0       0       0       0       0       000010000D0000435
     110       0       0       1       0                               0D0000436
     110     222       0       0       0       0       0       000010000D0000437
     110       0       0       1       0                               0D0000438
     110     223       0       0       0       0       0       000010000D0000439
     110       0       0       1       0                               0D0000440
     110     224       0       0       0       0       0       000010000D0000441
     110       0       0       1       0                               0D0000442
     144     225       0       0       0       0       0       000020000D0000443
     144       0    -543       1       0                               0D0000444
     108     226       0       0       0       0       0       000010000D0000445
     108       0       0       1       0                               0D0000446
     142     227       0       0       0       0       0       000010500D0000447
     142       0       0       1       0                               0D0000448
     102     228       0       0       0       0       0       000010000D0000449
     102       0       0       1       0                               0D0000450
     110     229       0       0       0       0       0       000010000D0000451
     110       0    -543       1       0                               0D0000452
     110     230       0       0       0       0       0       000010000D0000453
     110       0       0       1       0                               0D0000454
     110     231       0       0       0       0       0       000010000D0000455
     110       0    -543       1       0                               0D0000456
     110     232       0       0       0       0       0       000010000D0000457
     110       0       0       1       0                               0D0000458
     144     233       0       0       0       0       0       000020000D0000459
     144       0    -543       1       0                               0D0000460
     108     234       0       0       0       0       0       000010000D0000461
     108       0       0       1       0                               0D0000462
     142     235       0       0       0       0       0       000010500D0000463
     142       0       0       1       0                               0D0000464
     102     236       0       0       0       0       0       000010000D0000465
     102       0       0       1       0                               0D0000466
     110     237       0       0       0       0       0       000010000D0000467
     110       0    -543       1       0                               0D0000468
     110     238       0       0       0       0       0       000010000D0000469
     110       0       0       1       0                               0D0000470
     110     239       0       0       0       0       0       000010000D0000471
     110       0    -543       1       0                               0D0000472
     110     240       0       0       0       0       0       000010000D0000473
     110       0       0       1       0                               0D0000474
     144     241       0       0       0       0       0       000020000D0000475
     144       0    -543       1       0                               0D0000476
     108     242       0       0       0       0       0       000010000D0000477
     108       0       0       1       0                               0D0000478
     142     243       0       0       0       0       0       000010500D0000479
     142       0       0       1       0                               0D0000480
     102     244       0       0       0       0       0       000010000D0000481
     102       0       0       1       0                               0D0000482
     110     245       0       0       0       0       0       000010000D0000483
     110       0       0       1       0                               0D0000484
     110     246       0       0       0       0       0       000010000D0000485
     110       0    -543       1       0                               0D0000486
     110     247       0       0       0       0       0       000010000D0000487
     110       0    -543       1       0                               0D0000488
     110     248       0       0       0       0       0       000010000D0000489
     110       0    -543       1       0                               0D0000490
     144     249       0       0       0       0       0       000020000D0000491
     144       0    -543       1       0                               0D0000492
     108     250       0       0       0       0       0       000010000D0000493
     108       0       0       1       0                               0D0000494
     142     251       0       0       0       0       0       000010500D0000495
     142       0       0       1       0                               0D0000496
     102     252       0       0       0       0       0       000010000D0000497
     102       0       0       1       0                               0D0000498
     110     253       0       0       0       0       0       000010000D0000499
     110       0       0       1       0                               0D0000500
     110     254       0       0       0       0       0       000010000D0000501
     110       0    -543       1       0                               0D0000502
     110     255       0       0       0       0       0       000010000D0000503
     110       0    -543       1       0                               0D0000504
     110     256       0       0       0       0       0       000010000D0000505
     110       0    -543       1       0                               0D0000506
     144     257       0       0       0       0       0       000020000D0000507
     144       0    -543       1       0                               0D0000508
     108     258       0       0       0       0       0       000010000D0000509
     108       0       0       1       0                               0D0000510
     142     259       0       0       0       0       0       000010500D0000511
     142       0       0       1       0                               0D0000512
     102     260       0       0       0       0       0       000010000D0000513
     102       0       0       1       0                               0D0000514
     110     261       0       0       0       0       0       000010000D0000515
     110       0    -543       1       0                               0D0000516
     110     262       0       0       0       0       0       000010000D0000517
     110       0    -543       1       0                               0D0000518
     110     263       0       0       0       0       0       000010000D0000519
     110       0    -543       1       0                               0D0000520
     110     264       0       0       0       0       0       000010000D0000521
     110       0    -543       1       0                               0D0000522
     144     265       0       0       0       0       0       000020000D0000523
     144       0    -543       1       0                               0D0000524
     108     266       0       0       0       0       0       000010000D0000525
     108       0       0       1       0                               0D0000526
     142     267       0       0       0       0       0       000010500D0000527
     142       0       0       1       0                               0D0000528
     102     268       0       0       0       0       0       000010000D0000529
     102       0       0       1       0                               0D0000530
     110     269       0       0       0       0       0       000010000D0000531
     110       0    -543       1       0                               0D0000532
     110     270       0       0       0       0       0       000010000D0000533
     110       0    -543       1       0                               0D0000534
     110     271       0       0       0       0       0       000010000D0000535
     110       0    -543       1       0                               0D0000536
     110     272       0       0       0       0       0       000010000D0000537
     110       0    -543       1       0                               0D0000538
     314     273       0       0       0       0       0       000000200D0000539
     314       0       0       1       0                               0D0000540
     314     274       0       0       0       0       0       000000200D0000541
     314       0       0       1       0                               0D0000542
     314     275       0       0       0       0       0       000000200D0000543
     314       0       0       1       0                               0D0000544
     406     276       0       0       0       0       0       000000000D0000545
     406       0       0       1      15                               0D0000546
402,4,3,101,263,401,0,1,545;                                     0000001P0000001
402,6,5,21,37,53,69,85;                                          0000003P0000002
144,7,1,0,9;                                                     0000005P0000003
108,0.,-1.,0.,0.942,0,1.186,-0.942,1.092,0.;                     0000007P0000004
142,0,7,0,11,2;                                                  0000009P0000005
102,4,13,15,17,19;                                               0000011P0000006
110,1.186,-0.942,1.092,1.545,-0.942,1.092;                       0000013P0000007
110,1.545,-0.942,1.092,1.545,-0.942,1.099;                       0000015P0000008
110,1.545,-0.942,1.099,1.186,-0.942,1.099;                       0000017P0000009
110,1.186,-0.942,1.099,1.186,-0.942,1.092;                       0000019P0000010
144,23,1,0,25;                                                   0000021P0000011
108,1.,0.,0.,1.545,0,1.545,-0.942,1.092,0.;                      0000023P0000012
142,0,23,0,27,2;                                                 0000025P0000013
102,4,29,31,33,35;                                               0000027P0000014
110,1.545,-0.942,1.092,1.545,0.942,1.092;                        0000029P0000015
110,1.545,0.942,1.092,1.545,0.942,1.099;                         0000031P0000016
110,1.545,0.942,1.099,1.545,-0.942,1.099;                        0000033P0000017
110,1.545,-0.942,1.099,1.545,-0.942,1.092;                       0000035P0000018
144,39,1,0,41;                                                   0000037P0000019
108,0.,1.,0.,0.942,0,1.545,0.942,1.092,0.;                       0000039P0000020
142,0,39,0,43,2;                                                 0000041P0000021
102,4,45,47,49,51;                                               0000043P0000022
110,1.545,0.942,1.092,1.186,0.942,1.092;                         0000045P0000023
110,1.186,0.942,1.092,1.186,0.942,1.099;                         0000047P0000024
110,1.186,0.942,1.099,1.545,0.942,1.099;                         0000049P0000025
110,1.545,0.942,1.099,1.545,0.942,1.092;                         0000051P0000026
144,55,1,0,57;                                                   0000053P0000027
108,-1.,0.,0.,-1.186,0,1.186,0.942,1.092,0.;                     0000055P0000028
142,0,55,0,59,2;                                                 0000057P0000029
102,4,61,63,65,67;                                               0000059P0000030
110,1.186,0.942,1.092,1.186,-0.942,1.092;                        0000061P0000031
110,1.186,-0.942,1.092,1.186,-0.942,1.099;                       0000063P0000032
110,1.186,-0.942,1.099,1.186,0.942,1.099;                        0000065P0000033
110,1.186,0.942,1.099,1.186,0.942,1.092;                         0000067P0000034
144,71,1,0,73;                                                   0000069P0000035
108,0.,0.,-1.,-1.092,0,1.186,0.942,1.092,0.;                     0000071P0000036
142,0,71,0,75,2;                                                 0000073P0000037
102,4,77,79,81,83;                                               0000075P0000038
110,1.186,0.942,1.092,1.545,0.942,1.092;                         0000077P0000039
110,1.545,0.942,1.092,1.545,-0.942,1.092;                        0000079P0000040
110,1.545,-0.942,1.092,1.186,-0.942,1.092;                       0000081P0000041
110,1.186,-0.942,1.092,1.186,0.942,1.092;                        0000083P0000042
144,87,1,0,89;                                                   0000085P0000043
108,0.,0.,1.,1.099,0,1.186,-0.942,1.099,0.;                      0000087P0000044
142,0,87,0,91,2;                                                 0000089P0000045
102,4,93,95,97,99;                                               0000091P0000046
110,1.186,-0.942,1.099,1.545,-0.942,1.099;                       0000093P0000047
110,1.545,-0.942,1.099,1.545,0.942,1.099;                        0000095P0000048
110,1.545,0.942,1.099,1.186,0.942,1.099;                         0000097P0000049
110,1.186,0.942,1.099,1.186,-0.942,1.099;                        0000099P0000050
402,10,103,119,135,151,167,183,199,215,231,247;                  0000101P0000051
144,105,1,0,107;                                                 0000103P0000052
108,0.,0.,1.,1.092,0,-1.847,-1.199,1.092,0.;                     0000105P0000053
142,0,105,0,109,2;                                               0000107P0000054
102,4,111,113,115,117;                                           0000109P0000055
110,-1.847,-1.199,1.092,1.847,-1.199,1.092;                      0000111P0000056
110,1.847,-1.199,1.092,1.847,1.199,1.092;                        0000113P0000057
110,1.847,1.199,1.092,-1.847,1.199,1.092;                        0000115P0000058
110,-1.847,1.199,1.092,-1.847,-1.199,1.092;                      0000117P0000059
144,121,1,0,123;                                                 0000119P0000060
108,0.,0.,-1.,-5.1E-02,0,-1.994,1.346,5.1E-02,0.;                0000121P0000061
142,0,121,0,125,2;                                               0000123P0000062
102,4,127,129,131,133;                                           0000125P0000063
110,-1.994,1.346,5.1E-02,1.994,1.346,5.1E-02;                    0000127P0000064
110,1.994,1.346,5.1E-02,1.994,-1.346,5.1E-02;                    0000129P0000065
110,1.994,-1.346,5.1E-02,-1.994,-1.346,5.1E-02;                  0000131P0000066
110,-1.994,-1.346,5.1E-02,-1.994,1.346,5.1E-02;                  0000133P0000067
144,137,1,0,139;                                                 0000135P0000068
108,0.,-0.985627011,0.16893607,1.366184997,0,-1.994,-1.346,      0000137P0000069
0.234,0.;                                                        0000137P0000070
142,0,137,0,141,2;                                               0000139P0000071
102,4,143,145,147,149;                                           0000141P0000072
110,-1.994,-1.346,0.234,1.994,-1.346,0.234;                      0000143P0000073
110,1.993556722,-1.345556722,0.233848592,1.847,-1.199,1.092;     0000145P0000074
110,1.847,-1.199,1.092,-1.847,-1.199,1.092;                      0000147P0000075
110,-1.847443278,-1.199443278,1.092151408,-1.994,-1.346,0.234;   0000149P0000076
144,153,1,0,155;                                                 0000151P0000077
108,0.985627011,0.,0.16893607,2.0048713,0,1.994,-1.346,0.234,0.; 0000153P0000078
142,0,153,0,157,2;                                               0000155P0000079
102,4,159,161,163,165;                                           0000157P0000080
110,1.994,-1.346,0.234,1.994,1.346,0.234;                        0000159P0000081
110,1.993556722,1.345556722,0.233848592,1.847,1.199,1.092;       0000161P0000082
110,1.847,1.199,1.092,1.847,-1.199,1.092;                        0000163P0000083
110,1.847,-1.199,1.092,1.993556722,-1.345556722,0.233848592;     0000165P0000084
144,169,1,0,171;                                                 0000167P0000085
108,0.,0.985627011,0.16893607,1.366184997,0,1.994,1.346,0.234,   0000169P0000086
0.;                                                              0000169P0000087
142,0,169,0,173,2;                                               0000171P0000088
102,4,175,177,179,181;                                           0000173P0000089
110,1.994,1.346,0.234,-1.994,1.346,0.234;                        0000175P0000090
110,-1.993556722,1.345556722,0.233848592,-1.847,1.199,1.092;     0000177P0000091
110,-1.847,1.199,1.092,1.847,1.199,1.092;                        0000179P0000092
110,1.847,1.199,1.092,1.993556722,1.345556722,0.233848592;       0000181P0000093
144,185,1,0,187;                                                 0000183P0000094
108,-0.985627011,0.,0.16893607,2.0048713,0,-1.994,1.346,0.234,   0000185P0000095
0.;                                                              0000185P0000096
142,0,185,0,189,2;                                               0000187P0000097
102,4,191,193,195,197;                                           0000189P0000098
110,-1.994,1.346,0.234,-1.994,-1.346,0.234;                      0000191P0000099
110,-1.994,-1.346,0.234,-1.847443278,-1.199443278,1.092151408;   0000193P0000100
110,-1.847,-1.199,1.092,-1.847,1.199,1.092;                      0000195P0000101
110,-1.847,1.199,1.092,-1.993556722,1.345556722,0.233848592;     0000197P0000102
144,201,1,0,203;                                                 0000199P0000103
108,0.,-1.,0.,1.346,0,-1.994,-1.346,5.1E-02,0.;                  0000201P0000104
142,0,201,0,205,2;                                               0000203P0000105
102,4,207,209,211,213;                                           0000205P0000106
110,-1.994,-1.346,5.1E-02,1.994,-1.346,5.1E-02;                  0000207P0000107
110,1.994,-1.346,5.1E-02,1.994,-1.346,0.234;                     0000209P0000108
110,1.994,-1.346,0.234,-1.994,-1.346,0.234;                      0000211P0000109
110,-1.994,-1.346,0.234,-1.994,-1.346,5.1E-02;                   0000213P0000110
144,217,1,0,219;                                                 0000215P0000111
108,1.,0.,0.,1.994,0,1.994,-1.346,5.1E-02,0.;                    0000217P0000112
142,0,217,0,221,2;                                               0000219P0000113
102,4,223,225,227,229;                                           0000221P0000114
110,1.994,-1.346,5.1E-02,1.994,1.346,5.1E-02;                    0000223P0000115
110,1.994,1.346,5.1E-02,1.994,1.346,0.234;                       0000225P0000116
110,1.994,1.346,0.234,1.994,-1.346,0.234;                        0000227P0000117
110,1.994,-1.346,0.234,1.994,-1.346,5.1E-02;                     0000229P0000118
144,233,1,0,235;                                                 0000231P0000119
108,0.,1.,0.,1.346,0,1.994,1.346,5.1E-02,0.;                     0000233P0000120
142,0,233,0,237,2;                                               0000235P0000121
102,4,239,241,243,245;                                           0000237P0000122
110,1.994,1.346,5.1E-02,-1.994,1.346,5.1E-02;                    0000239P0000123
110,-1.994,1.346,5.1E-02,-1.994,1.346,0.234;                     0000241P0000124
110,-1.994,1.346,0.234,1.994,1.346,0.234;                        0000243P0000125
110,1.994,1.346,0.234,1.994,1.346,5.1E-02;                       0000245P0000126
144,249,1,0,251;                                                 0000247P0000127
108,-1.,0.,0.,1.994,0,-1.994,1.346,5.1E-02,0.;                   0000249P0000128
142,0,249,0,253,2;                                               0000251P0000129
102,4,255,257,259,261;                                           0000253P0000130
110,-1.994,1.346,5.1E-02,-1.994,-1.346,5.1E-02;                  0000255P0000131
110,-1.994,-1.346,5.1E-02,-1.994,-1.346,0.234;                   0000257P0000132
110,-1.994,-1.346,0.234,-1.994,1.346,0.234;                      0000259P0000133
110,-1.994,1.346,0.234,-1.994,1.346,5.1E-02;                     0000261P0000134
402,8,265,285,305,321,337,353,369,385;                           0000263P0000135
144,267,1,0,269;                                                 0000265P0000136
108,0.,-1.,0.,0.952,0,-2.502,-0.952,0.,0.;                       0000267P0000137
142,0,267,0,271,2;                                               0000269P0000138
102,6,273,275,277,279,281,283;                                   0000271P0000139
110,-2.502,-0.952,0.,-1.892,-0.952,0.;                           0000273P0000140
110,-1.892,-0.952,0.,-1.892,-0.952,5.1E-02;                      0000275P0000141
110,-1.892,-0.952,5.1E-02,-1.994,-0.952,5.1E-02;                 0000277P0000142
110,-1.994,-0.952,5.1E-02,-1.994,-0.952,0.152;                   0000279P0000143
110,-1.994,-0.952,0.152,-2.502,-0.952,0.152;                     0000281P0000144
110,-2.502,-0.952,0.152,-2.502,-0.952,0.;                        0000283P0000145
144,287,1,0,289;                                                 0000285P0000146
108,0.,1.,0.,0.952,0,-1.892,0.952,0.,0.;                         0000287P0000147
142,0,287,0,291,2;                                               0000289P0000148
102,6,293,295,297,299,301,303;                                   0000291P0000149
110,-1.892,0.952,0.,-2.502,0.952,0.;                             0000293P0000150
110,-2.502,0.952,0.,-2.502,0.952,0.152;                          0000295P0000151
110,-2.502,0.952,0.152,-1.994,0.952,0.152;                       0000297P0000152
110,-1.994,0.952,0.152,-1.994,0.952,5.1E-02;                     0000299P0000153
110,-1.994,0.952,5.1E-02,-1.892,0.952,5.1E-02;                   0000301P0000154
110,-1.892,0.952,5.1E-02,-1.892,0.952,0.;                        0000303P0000155
144,307,1,0,309;                                                 0000305P0000156
108,0.,0.,1.,0.152,0,-2.502,-0.952,0.152,0.;                     0000307P0000157
142,0,307,0,311,2;                                               0000309P0000158
102,4,313,315,317,319;                                           0000311P0000159
110,-2.502,-0.952,0.152,-1.994,-0.952,0.152;                     0000313P0000160
110,-1.994,-0.952,0.152,-1.994,0.952,0.152;                      0000315P0000161
110,-1.994,0.952,0.152,-2.502,0.952,0.152;                       0000317P0000162
110,-2.502,0.952,0.152,-2.502,-0.952,0.152;                      0000319P0000163
144,323,1,0,325;                                                 0000321P0000164
108,0.,0.,1.,5.1E-02,0,-1.994,-0.952,5.1E-02,0.;                 0000323P0000165
142,0,323,0,327,2;                                               0000325P0000166
102,4,329,331,333,335;                                           0000327P0000167
110,-1.994,-0.952,5.1E-02,-1.892,-0.952,5.1E-02;                 0000329P0000168
110,-1.892,-0.952,5.1E-02,-1.892,0.952,5.1E-02;                  0000331P0000169
110,-1.892,0.952,5.1E-02,-1.994,0.952,5.1E-02;                   0000333P0000170
110,-1.994,0.952,5.1E-02,-1.994,-0.952,5.1E-02;                  0000335P0000171
144,339,1,0,341;                                                 0000337P0000172
108,-1.,0.,0.,2.502,0,-2.502,0.952,0.,0.;                        0000339P0000173
142,0,339,0,343,2;                                               0000341P0000174
102,4,345,347,349,351;                                           0000343P0000175
110,-2.502,0.952,0.,-2.502,-0.952,0.;                            0000345P0000176
110,-2.502,-0.952,0.,-2.502,-0.952,0.152;                        0000347P0000177
110,-2.502,-0.952,0.152,-2.502,0.952,0.152;                      0000349P0000178
110,-2.502,0.952,0.152,-2.502,0.952,0.;                          0000351P0000179
144,355,1,0,357;                                                 0000353P0000180
108,1.,0.,0.,-1.892,0,-1.892,-0.952,0.,0.;                       0000355P0000181
142,0,355,0,359,2;                                               0000357P0000182
102,4,361,363,365,367;                                           0000359P0000183
110,-1.892,-0.952,0.,-1.892,0.952,0.;                            0000361P0000184
110,-1.892,0.952,0.,-1.892,0.952,5.1E-02;                        0000363P0000185
110,-1.892,0.952,5.1E-02,-1.892,-0.952,5.1E-02;                  0000365P0000186
110,-1.892,-0.952,5.1E-02,-1.892,-0.952,0.;                      0000367P0000187
144,371,1,0,373;                                                 0000369P0000188
108,1.,0.,0.,-1.994,0,-1.994,-0.952,5.1E-02,0.;                  0000371P0000189
142,0,371,0,375,2;                                               0000373P0000190
102,4,377,379,381,383;                                           0000375P0000191
110,-1.994,-0.952,5.1E-02,-1.994,0.952,5.1E-02;                  0000377P0000192
110,-1.994,0.952,5.1E-02,-1.994,0.952,0.152;                     0000379P0000193
110,-1.994,0.952,0.152,-1.994,-0.952,0.152;                      0000381P0000194
110,-1.994,-0.952,0.152,-1.994,-0.952,5.1E-02;                   0000383P0000195
144,387,1,0,389;                                                 0000385P0000196
108,0.,0.,-1.,0.,0,-2.502,0.952,0.,0.;                           0000387P0000197
142,0,387,0,391,2;                                               0000389P0000198
102,4,393,395,397,399;                                           0000391P0000199
110,-2.502,0.952,0.,-1.892,0.952,0.;                             0000393P0000200
110,-1.892,0.952,0.,-1.892,-0.952,0.;                            0000395P0000201
110,-1.892,-0.952,0.,-2.502,-0.952,0.;                           0000397P0000202
110,-2.502,-0.952,0.,-2.502,0.952,0.;                            0000399P0000203
402,8,403,423,443,459,475,491,507,523;                           0000401P0000204
144,405,1,0,407;                                                 0000403P0000205
108,0.,1.,0.,0.952,0,2.502,0.952,0.,0.;                          0000405P0000206
142,0,405,0,409,2;                                               0000407P0000207
102,6,411,413,415,417,419,421;                                   0000409P0000208
110,2.502,0.952,0.,1.892,0.952,0.;                               0000411P0000209
110,1.892,0.952,0.,1.892,0.952,5.1E-02;                          0000413P0000210
110,1.892,0.952,5.1E-02,1.994,0.952,5.1E-02;                     0000415P0000211
110,1.994,0.952,5.1E-02,1.994,0.952,0.152;                       0000417P0000212
110,1.994,0.952,0.152,2.502,0.952,0.152;                         0000419P0000213
110,2.502,0.952,0.152,2.502,0.952,0.;                            0000421P0000214
144,425,1,0,427;                                                 0000423P0000215
108,0.,-1.,0.,0.952,0,1.892,-0.952,0.,0.;                        0000425P0000216
142,0,425,0,429,2;                                               0000427P0000217
102,6,431,433,435,437,439,441;                                   0000429P0000218
110,1.892,-0.952,0.,2.502,-0.952,0.;                             0000431P0000219
110,2.502,-0.952,0.,2.502,-0.952,0.152;                          0000433P0000220
110,2.502,-0.952,0.152,1.994,-0.952,0.152;                       0000435P0000221
110,1.994,-0.952,0.152,1.994,-0.952,5.1E-02;                     0000437P0000222
110,1.994,-0.952,5.1E-02,1.892,-0.952,5.1E-02;                   0000439P0000223
110,1.892,-0.952,5.1E-02,1.892,-0.952,0.;                        0000441P0000224
144,445,1,0,447;                                                 0000443P0000225
108,0.,0.,1.,0.152,0,2.502,0.952,0.152,0.;                       0000445P0000226
142,0,445,0,449,2;                                               0000447P0000227
102,4,451,453,455,457;                                           0000449P0000228
110,2.502,0.952,0.152,1.994,0.952,0.152;                         0000451P0000229
110,1.994,0.952,0.152,1.994,-0.952,0.152;                        0000453P0000230
110,1.994,-0.952,0.152,2.502,-0.952,0.152;                       0000455P0000231
110,2.502,-0.952,0.152,2.502,0.952,0.152;                        0000457P0000232
144,461,1,0,463;                                                 0000459P0000233
108,0.,0.,1.,5.1E-02,0,1.994,0.952,5.1E-02,0.;                   0000461P0000234
142,0,461,0,465,2;                                               0000463P0000235
102,4,467,469,471,473;                                           0000465P0000236
110,1.994,0.952,5.1E-02,1.892,0.952,5.1E-02;                     0000467P0000237
110,1.892,0.952,5.1E-02,1.892,-0.952,5.1E-02;                    0000469P0000238
110,1.892,-0.952,5.1E-02,1.994,-0.952,5.1E-02;                   0000471P0000239
110,1.994,-0.952,5.1E-02,1.994,0.952,5.1E-02;                    0000473P0000240
144,477,1,0,479;                                                 0000475P0000241
108,1.,0.,0.,2.502,0,2.502,-0.952,0.,0.;                         0000477P0000242
142,0,477,0,481,2;                                               0000479P0000243
102,4,483,485,487,489;                                           0000481P0000244
110,2.502,-0.952,0.,2.502,0.952,0.;                              0000483P0000245
110,2.502,0.952,0.,2.502,0.952,0.152;                            0000485P0000246
110,2.502,0.952,0.152,2.502,-0.952,0.152;                        0000487P0000247
110,2.502,-0.952,0.152,2.502,-0.952,0.;                          0000489P0000248
144,493,1,0,495;                                                 0000491P0000249
108,-1.,0.,0.,-1.892,0,1.892,0.952,0.,0.;                        0000493P0000250
142,0,493,0,497,2;                                               0000495P0000251
102,4,499,501,503,505;                                           0000497P0000252
110,1.892,0.952,0.,1.892,-0.952,0.;                              0000499P0000253
110,1.892,-0.952,0.,1.892,-0.952,5.1E-02;                        0000501P0000254
110,1.892,-0.952,5.1E-02,1.892,0.952,5.1E-02;                    0000503P0000255
110,1.892,0.952,5.1E-02,1.892,0.952,0.;                          0000505P0000256
144,509,1,0,511;                                                 0000507P0000257
108,-1.,0.,0.,-1.994,0,1.994,0.952,5.1E-02,0.;                   0000509P0000258
142,0,509,0,513,2;                                               0000511P0000259
102,4,515,517,519,521;                                           0000513P0000260
110,1.994,0.952,5.1E-02,1.994,-0.952,5.1E-02;                    0000515P0000261
110,1.994,-0.952,5.1E-02,1.994,-0.952,0.152;                     0000517P0000262
110,1.994,-0.952,0.152,1.994,0.952,0.152;                        0000519P0000263
110,1.994,0.952,0.152,1.994,0.952,5.1E-02;                       0000521P0000264
144,525,1,0,527;                                                 0000523P0000265
108,0.,0.,-1.,0.,0,2.502,-0.952,0.,0.;                           0000525P0000266
142,0,525,0,529,2;                                               0000527P0000267
102,4,531,533,535,537;                                           0000529P0000268
110,2.502,-0.952,0.,1.892,-0.952,0.;                             0000531P0000269
110,1.892,-0.952,0.,1.892,0.952,0.;                              0000533P0000270
110,1.892,0.952,0.,2.502,0.952,0.;                               0000535P0000271
110,2.502,0.952,0.,2.502,-0.952,0.;                              0000537P0000272
314,58.799999754,58.799999754,58.799999754,6HGRAY59;             0000539P0000273
314,19.600000521,19.600000521,19.600000521,6HGRAY20;             0000541P0000274
314,72.499999117,72.499999117,72.499999117,6HGRAY72;             0000543P0000275
406,1,4Hpart;                                                    0000545P0000276
S      1G      4D    546P    276                                        T0000001
